<svg width="439" height="60" viewBox="0 0 439 60" fill="none" xmlns="http://www.w3.org/2000/svg">
<g clip-path="url(#clip0_3604_7398)">
<path d="M94.2013 2.78127H80.1646C79.1021 2.78127 78.2542 3.63392 78.2542 4.68958V54.5187H82.1158V38.0849C82.1158 37.0293 82.974 36.1766 84.0364 36.1766H94.4261C102.864 36.1766 110.802 29.4976 110.802 19.2658C110.802 11.2367 104.724 2.77112 94.2115 2.77112L94.2013 2.78127ZM94.3443 32.3499H84.0262C82.9638 32.3499 82.1056 31.4972 82.1056 30.4416V8.51634C82.1056 7.46068 82.9638 6.60803 84.0262 6.60803H94.2013C102.354 6.60803 106.93 13.2871 106.93 19.2556C106.93 27.569 100.423 32.3296 94.3443 32.3296V32.3499Z" fill="white"/>
<path d="M141.849 48.7836V2.78125H137.987V52.6205C137.987 53.6762 138.845 54.5288 139.907 54.5288H169.319V50.6919H143.769C142.707 50.6919 141.849 49.8393 141.849 48.7836Z" fill="white"/>
<path d="M230.186 35.8315C230.186 45.6369 222.32 51.7476 214.596 51.7476C204.656 51.7476 198.578 43.9316 198.578 36.1766V2.78125H194.716V36.3289C194.716 45.9212 202.296 55.5947 214.607 55.5947C224.261 55.5947 234.068 48.0629 234.068 35.8315V2.78125H230.206V35.8315H230.186Z" fill="white"/>
<path d="M277.108 25.5185C271.673 24.1685 267.025 21.6816 267.025 15.8552C267.025 8.74978 272.674 5.69446 277.322 5.69446C283.758 5.69446 287.763 10.384 288.049 16.2104L291.911 15.9973C291.553 8.2524 286.047 1.85754 277.251 1.85754C271.458 1.85754 263.163 5.76551 263.163 15.9973C263.163 23.8843 269.456 27.508 276.107 29.2844C287.978 32.3397 290.123 35.324 290.123 39.9425C290.123 45.6268 285.332 52.2348 277.108 52.2348C272.531 52.2348 265.594 50.1742 264.736 39.5161L260.875 39.7293C261.947 53.4427 271.601 56.0717 277.036 56.0717C287.835 56.0717 293.985 47.4742 293.985 39.9425C293.985 33.6897 290.981 29.1423 277.108 25.5185Z" fill="white"/>
<path d="M366.6 47.5453C371.207 42.3482 373.751 35.5473 373.751 28.3708C373.751 12.4649 361.022 0 344.778 0C330.742 0 316.225 10.7698 316.225 28.787C316.225 44.6929 328.954 57.1578 345.197 57.1578C350.724 57.1578 356.128 55.5439 360.807 52.5089C361.001 52.3769 361.246 52.2653 361.512 52.5495L368.765 59.7564C369.102 60.0914 369.634 60.0914 369.971 59.7564L373.414 56.3356C373.751 56.0007 373.751 55.4729 373.414 55.1379L366.559 48.3269C366.334 48.1035 366.395 47.7686 366.589 47.5554L366.6 47.5453ZM367.161 28.584C367.161 42.1858 355.73 50.6107 345.136 50.6107C331.171 50.6107 322.824 39.4857 322.824 28.7261C322.824 14.8503 333.99 6.55727 344.778 6.55727C357.323 6.55727 367.161 16.2308 367.161 28.584Z" fill="white"/>
<path d="M438.693 51.4431L416.555 4.26323C416.004 3.10607 414.87 2.38538 413.583 2.38538C412.295 2.38538 411.161 3.10607 410.61 4.26323L388.411 51.4431C387.644 53.0672 388.359 55.0161 390.025 55.7875C391.618 56.5285 393.651 55.7977 394.397 54.2142L402.079 37.8515C402.171 37.6586 402.366 37.5368 402.58 37.5368H424.534C424.749 37.5368 424.943 37.6586 425.035 37.8515L432.717 54.204C433.248 55.351 434.423 56.092 435.69 56.092C436.17 56.092 436.64 55.9905 437.12 55.7672C438.755 55.0059 439.46 53.0672 438.704 51.4431H438.693ZM421.408 30.7359C421.347 30.8273 421.204 30.9897 420.948 30.9897H406.145C405.88 30.9897 405.747 30.8273 405.686 30.7359C405.624 30.6446 405.543 30.4517 405.645 30.2182L413.021 14.4544C413.154 14.1803 413.389 14.1397 413.521 14.1397C413.654 14.1397 413.889 14.1803 414.022 14.4544L421.449 30.2182C421.561 30.4517 421.48 30.6446 421.418 30.7461L421.408 30.7359Z" fill="white"/>
<path d="M15.5998 16.6165C15.5283 16.6165 15.4465 16.6571 15.3444 16.7282C13.3829 18.1594 11.4214 19.5805 9.44976 21.0016C8.46903 21.7121 7.48829 22.4226 6.50756 23.1332C6.50756 23.1332 6.49735 23.1332 6.49735 23.1636C6.49735 23.1839 6.50756 23.1839 6.51778 23.1839L10.5224 24.473C10.5224 24.473 10.6348 24.473 10.6552 24.402C11.8301 21.235 13.5157 18.8902 15.8347 17.2052C15.9778 17.1037 16.0186 17.0124 15.8756 16.8195C15.7428 16.6368 15.6611 16.6165 15.61 16.6165H15.5998Z" fill="url(#paint0_linear_3604_7398)"/>
<path d="M10.1955 25.3764L6.18065 24.1178C6.18065 24.1178 6.16022 24.1178 6.16022 24.1279V24.1482C6.54843 25.2952 6.93663 26.4423 7.31462 27.5893C8.08082 29.8833 8.85723 32.1672 9.61321 34.451C9.70516 34.7251 9.81753 34.7251 9.87883 34.7251C9.92991 34.7251 10.0014 34.715 10.0831 34.6845H10.1036C10.3283 34.6033 10.3488 34.5018 10.2875 34.3394C9.38846 31.6292 9.37825 28.7464 10.267 25.5084C10.2773 25.4576 10.267 25.4272 10.267 25.417C10.267 25.4069 10.2466 25.3764 10.2057 25.3663L10.1955 25.3764Z" fill="url(#paint1_linear_3604_7398)"/>
<path d="M24.7635 8.57726C24.7635 8.57726 24.743 8.4453 24.6307 8.4047L18.3683 5.796C18.307 5.7757 18.2457 5.7554 18.1844 5.7554C18.0107 5.7554 17.8575 5.84676 17.7655 5.98886L13.8937 12.3431C13.812 12.4751 13.8222 12.6476 13.9141 12.7694L15.61 15.0838C15.6508 15.1345 15.7121 15.165 15.7836 15.165C15.8245 15.165 15.8654 15.1548 15.9062 15.1244L24.6817 8.75997C24.7737 8.69906 24.7737 8.59756 24.7635 8.56711V8.57726Z" fill="url(#paint2_linear_3604_7398)"/>
<path d="M10.0934 35.5879C10.0525 35.6691 10.0831 35.8011 10.1138 35.8924C10.88 38.156 11.636 40.4196 12.4022 42.6933C12.7904 43.8606 13.1888 45.0279 13.577 46.2054C13.577 46.2257 13.6179 46.2257 13.6179 46.2054L16.0697 42.805C16.0697 42.805 16.0901 42.7441 16.0901 42.7238C16.0901 42.7035 16.0799 42.6832 16.0493 42.6527C13.3727 40.582 11.6258 38.2677 10.7165 35.5676C10.6552 35.3748 10.5633 35.3748 10.5122 35.3748C10.4714 35.3748 10.4101 35.3849 10.3488 35.4052C10.1955 35.456 10.1138 35.5067 10.0831 35.5676L10.0934 35.5879Z" fill="url(#paint3_linear_3604_7398)"/>
<path d="M36.3075 14.9417L37.9931 12.6273C38.0851 12.5055 38.0953 12.333 38.0136 12.201L34.1111 5.86706C34.0191 5.72495 33.8659 5.63359 33.6922 5.63359C33.6309 5.63359 33.5594 5.64374 33.4981 5.6742L27.246 8.31334C27.1438 8.35394 27.1234 8.4453 27.1234 8.4859C27.1234 8.5265 27.1234 8.61786 27.2051 8.67876L36.0215 14.9924C36.1134 15.0533 36.2462 15.033 36.3177 14.9417H36.3075Z" fill="url(#paint4_linear_3604_7398)"/>
<path d="M28.145 6.91256C29.0031 6.55729 29.8612 6.18172 30.7398 5.80615C31.4243 5.51179 32.1087 5.21742 32.7932 4.9332C32.4765 4.852 32.2722 4.7911 32.2109 4.77079C30.0553 4.28357 28.4208 4.01965 25.9587 4.01965H25.9281C23.4048 4.01965 21.3718 4.29372 18.9302 4.96366C20.2685 5.53209 23.8134 7.02422 25.8055 7.84642C25.8055 7.84642 25.8259 7.84642 25.8464 7.84642C25.877 7.84642 25.9179 7.84642 25.9485 7.82612C26.49 7.6028 27.0416 7.36934 27.5729 7.14603L28.1552 6.90241L28.145 6.91256Z" fill="url(#paint5_linear_3604_7398)"/>
<path d="M16.5601 15.8146C16.4783 15.8755 16.3864 15.9567 16.366 16.0481C16.3557 16.1191 16.3864 16.2105 16.4783 16.3323C16.5396 16.4135 16.6111 16.4947 16.6929 16.4947C16.7439 16.4947 16.8052 16.4642 16.8665 16.4236C19.1856 14.7488 21.9541 13.8657 25.3356 13.7236C25.4071 13.7236 25.4479 13.6728 25.4479 13.6221V9.44006L25.4071 9.4096C24.4059 10.1303 23.415 10.851 22.424 11.5615C20.4626 12.9826 18.5113 14.4037 16.5498 15.8146H16.5601Z" fill="url(#paint6_linear_3604_7398)"/>
<path d="M35.3574 15.6827C33.3857 14.2819 31.4243 12.8709 29.4526 11.46C28.4616 10.7495 27.4707 10.0389 26.4798 9.3284H26.4593C26.4593 9.3284 26.4491 9.3284 26.4389 9.3284C26.4389 9.3284 26.4389 9.3284 26.4389 9.3487V13.5307C26.4389 13.5916 26.49 13.6322 26.5513 13.6322C29.943 13.754 32.7115 14.627 35.0407 16.2917C35.1122 16.3424 35.1735 16.3627 35.2144 16.3627C35.2961 16.3627 35.3779 16.2815 35.4289 16.2105C35.5209 16.0887 35.5617 15.9872 35.5413 15.9161C35.5311 15.8248 35.4289 15.7334 35.3472 15.6827H35.3574Z" fill="url(#paint7_linear_3604_7398)"/>
<path d="M12.964 12.0894C13.2705 11.592 13.577 11.0844 13.8835 10.5972L14.2104 10.0491C14.6905 9.25734 15.1707 8.45545 15.6611 7.64341C16.039 7.01407 16.417 6.37458 16.8052 5.74525C16.5192 5.85691 16.3047 5.93811 16.2332 5.95841C14.19 6.82121 12.7086 7.5622 10.6961 9.01373C8.65291 10.4856 7.1716 11.8863 5.58813 13.8556C7.00814 13.5409 10.7472 12.6882 12.8619 12.201C12.8823 12.201 12.9334 12.1503 12.9743 12.0995L12.964 12.0894Z" fill="url(#paint8_linear_3604_7398)"/>
<path d="M39.0045 11.998C39.5766 12.1401 40.1589 12.2721 40.731 12.404L41.344 12.5461C42.243 12.7491 43.1624 12.9623 44.0818 13.1653C44.8072 13.3277 45.5325 13.4901 46.2681 13.6627C46.0637 13.4089 45.9309 13.2465 45.8901 13.1958H45.8799C44.4292 11.5311 43.2544 10.3638 41.252 8.91223C39.2088 7.44039 37.4006 6.47609 35.0305 5.58284C35.8784 6.98362 37.8092 10.181 38.8819 11.9371C38.8921 11.9574 38.9534 11.998 39.0045 12.0081V11.998Z" fill="url(#paint9_linear_3604_7398)"/>
<path d="M9.17393 36.065C9.14328 35.9838 9.06155 35.9229 8.97982 35.9229C8.95939 35.9229 8.93896 35.9229 8.91853 35.933L6.19087 36.8364C6.03763 36.8872 5.93547 37.0191 5.92525 37.1714L5.37359 44.5813C5.35316 44.8148 5.51662 45.0381 5.75158 45.0888L12.3817 46.5708C12.4635 46.5911 12.5554 46.5607 12.5963 46.4896C12.6167 46.4592 12.6576 46.3881 12.6269 46.2968L9.18414 36.0548L9.17393 36.065Z" fill="url(#paint10_linear_3604_7398)"/>
<path d="M14.9766 15.7537C14.9766 15.703 14.9766 15.6421 14.9357 15.6014L13.2399 13.2973C13.1684 13.1958 13.0458 13.1349 12.9232 13.1349C12.8925 13.1349 12.8619 13.1349 12.8312 13.145L5.55748 14.8605C5.32251 14.9112 5.16927 15.1345 5.1897 15.368L5.77201 22.0877C5.78223 22.2095 5.89461 22.2805 5.98655 22.2805C6.02741 22.2805 6.06828 22.2704 6.10914 22.2399L14.8846 15.8755C14.8846 15.8755 14.9562 15.7943 14.9664 15.7436L14.9766 15.7537Z" fill="url(#paint11_linear_3604_7398)"/>
<path d="M5.77201 36.0751C5.77201 36.0751 5.85374 36.0751 5.89461 36.0548L8.62226 35.1514C8.67334 35.1311 8.71421 35.1007 8.74486 35.0499C8.76529 34.9992 8.7755 34.9484 8.75507 34.8875L5.32251 24.6456C5.29186 24.5441 5.1897 24.5035 5.11819 24.5035C5.07733 24.5035 5.01603 24.5136 4.95474 24.5745L0.551662 29.7107C0.398422 29.8934 0.398422 30.1675 0.551662 30.3401L5.47575 35.933C5.54726 36.0142 5.65964 36.065 5.77201 36.065V36.0751Z" fill="url(#paint12_linear_3604_7398)"/>
<path d="M3.81055 35.4052L3.40191 34.9281C2.79917 34.2277 2.176 33.5273 1.55282 32.8168C1.06246 32.2585 0.572093 31.7104 0.0817276 31.1521C0.10216 31.4769 0.10216 31.6901 0.10216 31.751C0.296263 33.9537 0.551661 35.5778 1.30764 37.9225C2.08405 40.3079 2.97284 42.1452 4.36221 44.2463C4.49502 42.8151 4.83215 38.9985 5.01603 36.8669C5.01603 36.8466 4.9956 36.7755 4.95474 36.7349C4.57675 36.2883 4.17833 35.8315 3.80034 35.3951L3.81055 35.4052Z" fill="url(#paint13_linear_3604_7398)"/>
<path d="M4.89344 23.2448C4.84236 22.6561 4.79128 22.0674 4.7402 21.4888L4.67891 20.8594C4.59718 19.9357 4.50524 19.0019 4.41329 18.068C4.34178 17.3372 4.27027 16.5962 4.19876 15.8654C4.02509 16.1293 3.90249 16.312 3.86163 16.3729C2.73788 18.2812 1.9819 19.7429 1.22591 22.0877C0.459718 24.4832 0.10216 26.4829 0 29.0002C0.950084 27.9141 3.46321 25.0212 4.86279 23.3869C4.87301 23.3666 4.89344 23.3057 4.89344 23.2448Z" fill="url(#paint14_linear_3604_7398)"/>
<path d="M42.5086 20.7782C40.5369 19.3673 38.5652 17.9564 36.6038 16.5455C36.5016 16.4744 36.4097 16.4338 36.3484 16.4338C36.2973 16.4338 36.2156 16.4541 36.0827 16.6267C35.9295 16.8297 35.9806 16.921 36.1236 17.0225C38.4426 18.6974 40.1487 21.032 41.3338 24.1787C41.3644 24.2599 41.4257 24.27 41.4666 24.2599L45.461 22.9505C45.461 22.9505 45.4712 22.9505 45.4814 22.9302C45.4814 22.9099 45.4814 22.9099 45.4712 22.9099C44.4803 22.1993 43.4893 21.4888 42.5086 20.7884V20.7782Z" fill="url(#paint15_linear_3604_7398)"/>
<path d="M26.1222 51.91C25.5807 52.1333 25.0393 52.3566 24.5081 52.58L23.9053 52.8337C23.0472 53.1991 22.1788 53.5646 21.3003 53.9401C20.626 54.2345 19.9415 54.5187 19.2571 54.8131C19.5738 54.9044 19.7781 54.9552 19.8394 54.9755H19.8598C22.0052 55.4627 23.6499 55.7368 26.1222 55.7368C28.6558 55.7368 30.6785 55.4627 33.1201 54.7928C31.7716 54.2142 28.2165 52.7221 26.2448 51.8999C26.2448 51.8999 26.1528 51.8999 26.1018 51.9202L26.1222 51.91Z" fill="url(#paint16_linear_3604_7398)"/>
<path d="M46.0229 36.6436L43.285 35.7706C43.285 35.7706 43.2441 35.7706 43.2237 35.7706C43.1318 35.7706 43.05 35.8315 43.0296 35.9127L39.7196 46.1953C39.689 46.2866 39.7196 46.3475 39.7503 46.378C39.7911 46.4287 39.8524 46.4693 39.924 46.4693C39.9444 46.4693 39.9546 46.4693 39.975 46.4693L46.5848 44.9061C46.8197 44.8554 46.973 44.6321 46.9525 44.3885L46.2987 36.9887C46.2885 36.8364 46.1761 36.7045 46.0331 36.6537L46.0229 36.6436Z" fill="url(#paint17_linear_3604_7398)"/>
<path d="M37.8195 47.7889C37.8195 47.7889 37.748 47.6874 37.6356 47.6874L26.7658 47.7584C26.7147 47.7584 26.6534 47.7787 26.6228 47.8193C26.5819 47.86 26.5615 47.9107 26.5615 47.9615L26.5819 50.8239C26.5819 50.9762 26.6739 51.1183 26.8169 51.1792L33.7331 54.001C33.9476 54.0924 34.2132 54.001 34.3358 53.798L37.8092 48.0021C37.8705 47.9107 37.8297 47.8193 37.8092 47.7889H37.8195Z" fill="url(#paint18_linear_3604_7398)"/>
<path d="M39.1169 47.6772C38.8104 48.1746 38.4937 48.6821 38.1975 49.1795L37.8705 49.7175C37.3904 50.5092 36.9102 51.3111 36.4199 52.1232C36.0419 52.7525 35.6639 53.392 35.2757 54.0213C35.572 53.9097 35.7763 53.8285 35.8478 53.8082C37.8808 52.9454 39.3723 52.2044 41.3746 50.763C43.4178 49.2912 44.9093 47.8904 46.4928 45.9212C45.083 46.2359 41.3338 47.0885 39.219 47.5757C39.1986 47.5757 39.1475 47.6265 39.1067 47.6772H39.1169Z" fill="url(#paint19_linear_3604_7398)"/>
<path d="M51.5191 29.4367L47.0547 24.3512C47.0036 24.2903 46.9423 24.2802 46.9014 24.2802C46.8299 24.2802 46.7278 24.3208 46.6971 24.4223L43.3872 34.7048C43.3667 34.7556 43.3769 34.8165 43.3974 34.8672C43.4178 34.918 43.4689 34.9484 43.52 34.9687L46.2578 35.8315C46.4009 35.8823 46.5745 35.8315 46.6665 35.7199L51.5191 30.066C51.6723 29.8833 51.6723 29.6092 51.5191 29.4367Z" fill="url(#paint20_linear_3604_7398)"/>
<path d="M47.1773 36.5624C47.2181 37.1409 47.2794 37.7398 47.3305 38.3083L47.3918 38.9376C47.4735 39.8512 47.5655 40.785 47.6472 41.729C47.7187 42.4598 47.7902 43.2008 47.8515 43.9418C48.0354 43.6678 48.1478 43.4952 48.1887 43.4343C49.3124 41.5361 50.0786 40.0643 50.8346 37.7195C51.611 35.324 51.9686 33.3243 52.0809 30.807C51.1411 31.8728 48.6382 34.7454 47.1977 36.4101C47.1875 36.4304 47.1671 36.4913 47.1671 36.5522L47.1773 36.5624Z" fill="url(#paint21_linear_3604_7398)"/>
<path d="M48.679 24.7877C49.292 25.4881 49.9152 26.1885 50.5383 26.899C51.0287 27.4472 51.5191 28.0054 51.9992 28.5637C51.9788 28.2389 51.9686 28.0257 51.9686 27.9648C51.7642 25.7622 51.5191 24.1381 50.7529 21.7933C49.9662 19.4079 49.0877 17.5707 47.6881 15.4695C47.5451 17.0631 47.2181 20.8188 47.0445 22.849C47.0445 22.8693 47.0649 22.9403 47.1058 22.9809C47.4838 23.4275 47.8822 23.8742 48.2602 24.3106L48.679 24.7877Z" fill="url(#paint22_linear_3604_7398)"/>
<path d="M42.0489 34.5323C42.1408 34.5627 42.2021 34.5729 42.2634 34.5729C42.3247 34.5729 42.4371 34.5729 42.529 34.2988C43.2646 32.0048 44.0001 29.7006 44.7459 27.4066C45.1137 26.2595 45.4916 25.1024 45.8594 23.9452C45.8594 23.9452 45.8594 23.9351 45.8594 23.9249C45.8594 23.9249 45.8492 23.9148 45.839 23.9148L41.8343 25.2242C41.8343 25.2242 41.7833 25.2648 41.773 25.2749C41.773 25.2851 41.7526 25.3155 41.773 25.3561C42.7027 28.5942 42.7333 31.4871 41.865 34.1973C41.8139 34.3597 41.8241 34.4612 42.0591 34.5424L42.0489 34.5323Z" fill="url(#paint23_linear_3604_7398)"/>
<path d="M25.734 50.8442L25.7136 47.9818C25.7136 47.8701 25.6216 47.7787 25.5092 47.7787L14.6395 47.8498C14.5271 47.8498 14.476 47.9209 14.4556 47.9615C14.4351 47.9919 14.4045 48.0833 14.4556 48.1746L18.0107 53.93C18.1027 54.0721 18.2559 54.1634 18.4296 54.1634C18.4909 54.1634 18.5624 54.1533 18.6237 54.1228L25.499 51.2096C25.642 51.1487 25.734 51.0066 25.734 50.8544V50.8442Z" fill="url(#paint24_linear_3604_7398)"/>
<path d="M42.0795 35.7503C42.1102 35.659 42.1408 35.527 42.0897 35.4458C42.0591 35.3849 41.9774 35.324 41.8343 35.2834C41.7628 35.2631 41.7117 35.2529 41.6709 35.2529C41.6198 35.2529 41.5279 35.2529 41.4666 35.4458C40.588 38.156 38.8819 40.4906 36.236 42.5918C36.1951 42.6223 36.1849 42.6527 36.1849 42.6629C36.1849 42.673 36.1849 42.7136 36.2053 42.7441L38.698 46.1141C38.698 46.1141 38.7389 46.1343 38.7491 46.1141C39.1169 44.967 39.4847 43.82 39.8524 42.673C40.5982 40.3688 41.3337 38.0647 42.0795 35.7605V35.7503Z" fill="url(#paint25_linear_3604_7398)"/>
<path d="M46.3702 14.6371L39.0862 12.9522C39.0862 12.9522 39.0249 12.9522 38.9943 12.9522C38.8717 12.9522 38.7491 13.0131 38.6776 13.1146L36.992 15.4289C36.992 15.4289 36.9511 15.5304 36.9511 15.5811C36.9511 15.6319 36.992 15.6827 37.0328 15.7131L45.839 22.0268C45.839 22.0268 45.9207 22.0674 45.9616 22.0674C46.0535 22.0674 46.1659 21.9963 46.1761 21.8745L46.7278 15.1447C46.7482 14.9112 46.5848 14.6879 46.3498 14.6371H46.3702Z" fill="url(#paint26_linear_3604_7398)"/>
<path d="M26.8884 46.8144C29.3198 46.7941 31.7308 46.784 34.1519 46.7637C35.3778 46.7637 36.6038 46.7535 37.8297 46.7434C37.8297 46.7434 37.8501 46.7434 37.8501 46.7332C37.8501 46.7231 37.8501 46.7129 37.8501 46.7028L35.3574 43.3328C35.3574 43.3328 35.3063 43.2922 35.2757 43.2922C35.2553 43.2922 35.2348 43.2922 35.2144 43.3125C32.405 45.2005 29.6467 46.1242 26.7862 46.1445C26.6126 46.1445 26.5206 46.1953 26.5206 46.4389C26.5206 46.7332 26.6023 46.8144 26.8884 46.8144Z" fill="url(#paint27_linear_3604_7398)"/>
<path d="M13.1275 47.7889C12.5554 47.6468 11.9629 47.5148 11.401 47.393L10.788 47.2509C9.87883 47.0479 8.95939 46.8449 8.02974 46.6317C7.30441 46.4693 6.57907 46.3069 5.85374 46.1445C6.04784 46.378 6.19087 46.5607 6.23173 46.6114H6.24195C7.70283 48.266 8.86745 49.4434 10.88 50.8848C12.9232 52.3567 14.7314 53.3108 17.1117 54.1939C16.3557 52.9555 14.3636 49.6871 13.2399 47.8498C13.2297 47.8295 13.1684 47.7889 13.1173 47.7787L13.1275 47.7889Z" fill="url(#paint28_linear_3604_7398)"/>
<path d="M25.3764 46.8449C25.4786 46.8449 25.6012 46.8347 25.6727 46.7637C25.7238 46.7129 25.7442 46.6216 25.7442 46.4693C25.7442 46.2156 25.6523 46.175 25.4786 46.175H25.4173C22.567 46.175 19.819 45.2817 17.0198 43.4546C16.9891 43.4343 16.9687 43.4241 16.9483 43.4241C16.9176 43.4241 16.887 43.4445 16.8665 43.4648L14.4147 46.8652C14.4147 46.8652 14.4147 46.8753 14.4147 46.8956C14.4147 46.9058 14.4351 46.9058 14.4351 46.9058C15.6611 46.9058 16.887 46.8855 18.1129 46.8855C20.5443 46.8652 22.9553 46.855 25.3764 46.8449Z" fill="url(#paint29_linear_3604_7398)"/>
</g>
<defs>
<linearGradient id="paint0_linear_3604_7398" x1="0.118577" y1="25.9144" x2="50.5384" y2="25.9144" gradientUnits="userSpaceOnUse">
<stop offset="0.0001" stop-color="#F1563C"/>
<stop offset="0.518464" stop-color="#FF8300"/>
<stop offset="1" stop-color="#FF2000"/>
</linearGradient>
<linearGradient id="paint1_linear_3604_7398" x1="0.118577" y1="25.9144" x2="50.5384" y2="25.9144" gradientUnits="userSpaceOnUse">
<stop offset="0.0001" stop-color="#F1563C"/>
<stop offset="0.518464" stop-color="#FF8300"/>
<stop offset="1" stop-color="#FF2000"/>
</linearGradient>
<linearGradient id="paint2_linear_3604_7398" x1="0.118577" y1="25.9144" x2="50.5384" y2="25.9144" gradientUnits="userSpaceOnUse">
<stop offset="0.0001" stop-color="#F1563C"/>
<stop offset="0.518464" stop-color="#FF8300"/>
<stop offset="1" stop-color="#FF2000"/>
</linearGradient>
<linearGradient id="paint3_linear_3604_7398" x1="0.118577" y1="25.9144" x2="50.5384" y2="25.9144" gradientUnits="userSpaceOnUse">
<stop offset="0.0001" stop-color="#F1563C"/>
<stop offset="0.518464" stop-color="#FF8300"/>
<stop offset="1" stop-color="#FF2000"/>
</linearGradient>
<linearGradient id="paint4_linear_3604_7398" x1="0.118577" y1="25.9144" x2="50.5384" y2="25.9144" gradientUnits="userSpaceOnUse">
<stop offset="0.0001" stop-color="#F1563C"/>
<stop offset="0.518464" stop-color="#FF8300"/>
<stop offset="1" stop-color="#FF2000"/>
</linearGradient>
<linearGradient id="paint5_linear_3604_7398" x1="0.118577" y1="25.9144" x2="50.5384" y2="25.9144" gradientUnits="userSpaceOnUse">
<stop offset="0.0001" stop-color="#F1563C"/>
<stop offset="0.518464" stop-color="#FF8300"/>
<stop offset="1" stop-color="#FF2000"/>
</linearGradient>
<linearGradient id="paint6_linear_3604_7398" x1="0.118577" y1="25.9144" x2="50.5384" y2="25.9144" gradientUnits="userSpaceOnUse">
<stop offset="0.0001" stop-color="#F1563C"/>
<stop offset="0.518464" stop-color="#FF8300"/>
<stop offset="1" stop-color="#FF2000"/>
</linearGradient>
<linearGradient id="paint7_linear_3604_7398" x1="0.118577" y1="25.9144" x2="50.5384" y2="25.9144" gradientUnits="userSpaceOnUse">
<stop offset="0.0001" stop-color="#F1563C"/>
<stop offset="0.518464" stop-color="#FF8300"/>
<stop offset="1" stop-color="#FF2000"/>
</linearGradient>
<linearGradient id="paint8_linear_3604_7398" x1="0.118577" y1="25.9144" x2="50.5384" y2="25.9144" gradientUnits="userSpaceOnUse">
<stop offset="0.0001" stop-color="#F1563C"/>
<stop offset="0.518464" stop-color="#FF8300"/>
<stop offset="1" stop-color="#FF2000"/>
</linearGradient>
<linearGradient id="paint9_linear_3604_7398" x1="0.118577" y1="25.9144" x2="50.5384" y2="25.9144" gradientUnits="userSpaceOnUse">
<stop offset="0.0001" stop-color="#F1563C"/>
<stop offset="0.518464" stop-color="#FF8300"/>
<stop offset="1" stop-color="#FF2000"/>
</linearGradient>
<linearGradient id="paint10_linear_3604_7398" x1="0.118577" y1="25.9144" x2="50.5384" y2="25.9144" gradientUnits="userSpaceOnUse">
<stop offset="0.0001" stop-color="#F1563C"/>
<stop offset="0.518464" stop-color="#FF8300"/>
<stop offset="1" stop-color="#FF2000"/>
</linearGradient>
<linearGradient id="paint11_linear_3604_7398" x1="0.118577" y1="25.9144" x2="50.5384" y2="25.9144" gradientUnits="userSpaceOnUse">
<stop offset="0.0001" stop-color="#F1563C"/>
<stop offset="0.518464" stop-color="#FF8300"/>
<stop offset="1" stop-color="#FF2000"/>
</linearGradient>
<linearGradient id="paint12_linear_3604_7398" x1="0.118577" y1="25.9144" x2="50.5384" y2="25.9144" gradientUnits="userSpaceOnUse">
<stop offset="0.0001" stop-color="#F1563C"/>
<stop offset="0.518464" stop-color="#FF8300"/>
<stop offset="1" stop-color="#FF2000"/>
</linearGradient>
<linearGradient id="paint13_linear_3604_7398" x1="0.118577" y1="25.9144" x2="50.5384" y2="25.9144" gradientUnits="userSpaceOnUse">
<stop offset="0.0001" stop-color="#F1563C"/>
<stop offset="0.518464" stop-color="#FF8300"/>
<stop offset="1" stop-color="#FF2000"/>
</linearGradient>
<linearGradient id="paint14_linear_3604_7398" x1="0.118577" y1="25.9144" x2="50.5384" y2="25.9144" gradientUnits="userSpaceOnUse">
<stop offset="0.0001" stop-color="#F1563C"/>
<stop offset="0.518464" stop-color="#FF8300"/>
<stop offset="1" stop-color="#FF2000"/>
</linearGradient>
<linearGradient id="paint15_linear_3604_7398" x1="0.118577" y1="25.9144" x2="50.5384" y2="25.9144" gradientUnits="userSpaceOnUse">
<stop offset="0.0001" stop-color="#F1563C"/>
<stop offset="0.518464" stop-color="#FF8300"/>
<stop offset="1" stop-color="#FF2000"/>
</linearGradient>
<linearGradient id="paint16_linear_3604_7398" x1="0.118577" y1="25.9144" x2="50.5384" y2="25.9144" gradientUnits="userSpaceOnUse">
<stop offset="0.0001" stop-color="#F1563C"/>
<stop offset="0.518464" stop-color="#FF8300"/>
<stop offset="1" stop-color="#FF2000"/>
</linearGradient>
<linearGradient id="paint17_linear_3604_7398" x1="0.118577" y1="25.9144" x2="50.5384" y2="25.9144" gradientUnits="userSpaceOnUse">
<stop offset="0.0001" stop-color="#F1563C"/>
<stop offset="0.518464" stop-color="#FF8300"/>
<stop offset="1" stop-color="#FF2000"/>
</linearGradient>
<linearGradient id="paint18_linear_3604_7398" x1="0.118577" y1="25.9144" x2="50.5384" y2="25.9144" gradientUnits="userSpaceOnUse">
<stop offset="0.0001" stop-color="#F1563C"/>
<stop offset="0.518464" stop-color="#FF8300"/>
<stop offset="1" stop-color="#FF2000"/>
</linearGradient>
<linearGradient id="paint19_linear_3604_7398" x1="0.118577" y1="25.9144" x2="50.5384" y2="25.9144" gradientUnits="userSpaceOnUse">
<stop offset="0.0001" stop-color="#F1563C"/>
<stop offset="0.518464" stop-color="#FF8300"/>
<stop offset="1" stop-color="#FF2000"/>
</linearGradient>
<linearGradient id="paint20_linear_3604_7398" x1="0.118577" y1="25.9144" x2="50.5384" y2="25.9144" gradientUnits="userSpaceOnUse">
<stop offset="0.0001" stop-color="#F1563C"/>
<stop offset="0.518464" stop-color="#FF8300"/>
<stop offset="1" stop-color="#FF2000"/>
</linearGradient>
<linearGradient id="paint21_linear_3604_7398" x1="0.118577" y1="25.9144" x2="50.5384" y2="25.9144" gradientUnits="userSpaceOnUse">
<stop offset="0.0001" stop-color="#F1563C"/>
<stop offset="0.518464" stop-color="#FF8300"/>
<stop offset="1" stop-color="#FF2000"/>
</linearGradient>
<linearGradient id="paint22_linear_3604_7398" x1="0.118577" y1="25.9144" x2="50.5384" y2="25.9144" gradientUnits="userSpaceOnUse">
<stop offset="0.0001" stop-color="#F1563C"/>
<stop offset="0.518464" stop-color="#FF8300"/>
<stop offset="1" stop-color="#FF2000"/>
</linearGradient>
<linearGradient id="paint23_linear_3604_7398" x1="0.118577" y1="25.9144" x2="50.5384" y2="25.9144" gradientUnits="userSpaceOnUse">
<stop offset="0.0001" stop-color="#F1563C"/>
<stop offset="0.518464" stop-color="#FF8300"/>
<stop offset="1" stop-color="#FF2000"/>
</linearGradient>
<linearGradient id="paint24_linear_3604_7398" x1="0.118577" y1="25.9144" x2="50.5384" y2="25.9144" gradientUnits="userSpaceOnUse">
<stop offset="0.0001" stop-color="#F1563C"/>
<stop offset="0.518464" stop-color="#FF8300"/>
<stop offset="1" stop-color="#FF2000"/>
</linearGradient>
<linearGradient id="paint25_linear_3604_7398" x1="0.118577" y1="25.9144" x2="50.5384" y2="25.9144" gradientUnits="userSpaceOnUse">
<stop offset="0.0001" stop-color="#F1563C"/>
<stop offset="0.518464" stop-color="#FF8300"/>
<stop offset="1" stop-color="#FF2000"/>
</linearGradient>
<linearGradient id="paint26_linear_3604_7398" x1="0.118577" y1="25.9144" x2="50.5384" y2="25.9144" gradientUnits="userSpaceOnUse">
<stop offset="0.0001" stop-color="#F1563C"/>
<stop offset="0.518464" stop-color="#FF8300"/>
<stop offset="1" stop-color="#FF2000"/>
</linearGradient>
<linearGradient id="paint27_linear_3604_7398" x1="0.118577" y1="25.9144" x2="50.5384" y2="25.9144" gradientUnits="userSpaceOnUse">
<stop offset="0.0001" stop-color="#F1563C"/>
<stop offset="0.518464" stop-color="#FF8300"/>
<stop offset="1" stop-color="#FF2000"/>
</linearGradient>
<linearGradient id="paint28_linear_3604_7398" x1="0.118577" y1="25.9144" x2="50.5384" y2="25.9144" gradientUnits="userSpaceOnUse">
<stop offset="0.0001" stop-color="#F1563C"/>
<stop offset="0.518464" stop-color="#FF8300"/>
<stop offset="1" stop-color="#FF2000"/>
</linearGradient>
<linearGradient id="paint29_linear_3604_7398" x1="0.118577" y1="25.9144" x2="50.5384" y2="25.9144" gradientUnits="userSpaceOnUse">
<stop offset="0.0001" stop-color="#F1563C"/>
<stop offset="0.518464" stop-color="#FF8300"/>
<stop offset="1" stop-color="#FF2000"/>
</linearGradient>
<clipPath id="clip0_3604_7398">
<rect width="439" height="60" fill="white"/>
</clipPath>
</defs>
</svg>
